<?xml version="1.0" encoding="iso-8859-1"?>
<!-- Generator: Adobe Illustrator 21.0.0, SVG Export Plug-In . SVG Version: 6.00 Build 0)  -->
<svg xmlns="http://www.w3.org/2000/svg" xmlns:xlink="http://www.w3.org/1999/xlink" version="1.1" id="Capa_1" x="0px" y="0px" viewBox="0 0 512 512" style="enable-background:new 0 0 512 512;" xml:space="preserve" width="512" height="512">
<g>
	<circle style="fill:#FFE07D;" cx="256" cy="256" r="60.5"/>
	<path style="fill:#FFD064;" d="M256,195.5c-7.011,0-13.738,1.206-20,3.4c23.582,8.26,40.5,30.698,40.5,57.1   c0,26.402-16.918,48.84-40.5,57.1c6.262,2.193,12.989,3.4,20,3.4c33.413,0,60.5-27.087,60.5-60.5   C316.5,222.587,289.414,195.5,256,195.5z"/>
</g>
<g>
	<path d="M440.285,256c27.041-32.079,62.104-85.243,37.417-128c-24.682-42.752-88.27-38.972-129.56-31.595   C333.888,56.961,305.365,0,256,0c-49.374,0-77.903,56.992-92.155,96.441c-9.726-1.756-19.182-3.011-28.268-3.712   c-9.627-0.779-10.799,14.211-1.154,14.956c7.923,0.611,16.141,1.657,24.594,3.116c-7.574,24.284-13.135,51.198-16.504,79.678   c-22.983,17.16-43.514,35.436-60.759,54.14C59.876,218.261,26.718,171.129,47.289,135.5c11.219-19.432,35.813-25.767,54.469-27.66   c9.608-0.976,8.112-15.88-1.514-14.924C68.493,96.138,45.689,108.27,34.298,128c-24.682,42.75,10.366,95.909,37.418,128   C44.66,288.096,9.615,341.247,34.298,384c24.723,42.822,88.19,38.986,129.56,31.595C178.113,455.039,206.636,512,256,512   c20.08,0,39.736-10.782,56.843-31.18c6.205-7.4-5.278-17.05-11.494-9.639C286.982,488.313,271.725,497,256,497   c-41.116,0-65.418-52.386-77.266-84.408c24.821-5.583,50.913-14.225,77.266-25.549c26.356,11.326,52.453,19.969,77.276,25.552   c-4.244,11.483-8.979,22.163-14.185,31.857c-4.569,8.507,8.638,15.62,13.215,7.097c5.854-10.9,11.14-22.96,15.828-35.955   c41.252,7.371,104.884,11.16,129.568-31.594C502.388,341.244,467.324,288.077,440.285,256z M370.167,108.372   c30.363-3.28,76.829-3.556,94.545,27.128c12.896,22.338,4.229,57.125-23.779,95.443c-3.337,4.565-6.911,9.127-10.687,13.675   c-17.245-18.704-37.776-36.98-60.759-54.14c-3.369-28.484-8.931-55.403-16.507-79.689   C358.808,109.794,364.545,108.979,370.167,108.372z M153.719,256c0-19.578,1.012-38.789,2.965-57.34   c15.089-10.967,31.221-21.449,48.176-31.238c16.932-9.775,34.051-18.494,51.07-26.071c17.145,7.601,34.341,16.331,51.211,26.071   c16.955,9.789,33.086,20.271,48.176,31.238c1.953,18.551,2.965,37.762,2.965,57.34c0,19.566-1.025,38.791-2.987,57.355   c-15.083,10.962-31.207,21.438-48.154,31.223c-16.955,9.789-34.098,18.518-51.141,26.102c-17.042-7.584-34.186-16.313-51.14-26.102   c-16.955-9.789-33.086-20.271-48.176-31.238C154.731,294.789,153.719,275.578,153.719,256z M274.666,133.452   c21.714-8.626,43.082-15.283,63.499-19.766c6.321,19.907,11.237,41.722,14.624,64.819   C328.006,161.445,301.853,146.343,274.666,133.452z M371.506,210.926c18.31,14.482,34.744,29.646,48.823,45.074   c-14.085,15.433-30.526,30.604-48.844,45.091C373.885,271.105,373.89,240.913,371.506,210.926z M185.234,83.315   C204.414,39.9,230.206,15,256,15c41.116,0,65.418,52.386,77.266,84.408c-24.849,5.589-50.972,14.245-77.355,25.588   c-26.322-11.268-52.48-19.921-77.2-25.525C180.769,93.904,182.94,88.507,185.234,83.315z M173.823,113.728   c20.292,4.493,41.667,11.171,63.35,19.756c-27.114,12.915-53.222,27.992-77.96,45.022   C162.597,155.424,167.508,133.623,173.823,113.728z M140.494,210.926c-2.383,29.979-2.383,60.168,0,90.147   c-18.309-14.482-34.744-29.646-48.823-45.074C105.751,240.573,122.185,225.408,140.494,210.926z M141.833,403.628   c-47.183,5.098-81.647-4.791-94.545-27.128c-20.566-35.623,12.615-82.793,34.466-109.118c17.245,18.704,37.776,36.98,60.759,54.14   c3.369,28.484,8.931,55.403,16.507,79.689C153.193,402.206,147.456,403.021,141.833,403.628z M173.836,398.313   c-6.321-19.907-11.237-41.722-14.624-64.819c24.771,17.053,50.916,32.148,78.07,45.074   C215.586,387.184,194.236,393.834,173.836,398.313z M274.718,378.568c27.142-12.921,53.277-28.008,78.039-45.052   c-3.396,23.138-8.309,44.969-14.591,64.798C317.766,393.834,296.415,387.184,274.718,378.568z M464.712,376.5   c-20.595,35.674-77.91,30.492-111.754,24.707c7.533-24.207,13.11-51.146,16.497-79.662c22.996-17.167,43.538-35.451,60.791-54.163   C452.26,293.901,485.287,340.863,464.712,376.5z"/>
	<path d="M256,324c37.495,0,68-30.505,68-68s-30.505-68-68-68s-68,30.505-68,68S218.505,324,256,324z M256,203   c29.225,0,53,23.776,53,53s-23.775,53-53,53s-53-23.776-53-53S226.776,203,256,203z"/>
</g>















</svg>
